<svg width="28" height="28" viewBox="0 0 28 28" fill="none" xmlns="http://www.w3.org/2000/svg">
<g opacity="0.8">
<path d="M12.7786 12.9811C11.7018 12.9811 10.6492 12.6618 9.75384 12.0636C8.85851 11.4653 8.16068 10.615 7.7486 9.62017C7.33653 8.62533 7.22871 7.53063 7.43878 6.47451C7.64886 5.41839 8.16739 4.44829 8.92881 3.68687C9.69023 2.92545 10.6603 2.40692 11.7165 2.19684C12.7726 1.98676 13.8673 2.09458 14.8621 2.50666C15.857 2.91874 16.7073 3.61657 17.3055 4.5119C17.9037 5.40723 18.2231 6.45986 18.2231 7.53667C18.2231 8.98063 17.6494 10.3654 16.6284 11.3865C15.6074 12.4075 14.2226 12.9811 12.7786 12.9811ZM12.7786 3.71C12.0095 3.71 11.2576 3.93808 10.6181 4.3654C9.97854 4.79272 9.48009 5.40008 9.18575 6.11068C8.89141 6.82128 8.8144 7.60321 8.96445 8.35758C9.1145 9.11195 9.48488 9.80488 10.0288 10.3488C10.5726 10.8926 11.2656 11.263 12.0199 11.4131C12.7743 11.5631 13.5562 11.4861 14.2668 11.1918C14.9774 10.8974 15.5848 10.399 16.0121 9.75944C16.4394 9.11992 16.6675 8.36804 16.6675 7.59889C16.6675 7.0882 16.5669 6.5825 16.3715 6.11068C16.176 5.63886 15.8896 5.21015 15.5285 4.84903C15.1674 4.48792 14.7386 4.20146 14.2668 4.00603C13.795 3.81059 13.2893 3.71 12.7786 3.71ZM17.1108 13.9222C12.9018 12.9751 8.49852 13.4313 4.57306 15.2211C4.0332 15.479 3.57771 15.8849 3.25963 16.3917C2.94154 16.8984 2.77396 17.4851 2.77639 18.0833V22.7111C2.77639 22.8133 2.79651 22.9144 2.8356 23.0088C2.87469 23.1031 2.93198 23.1889 3.0042 23.2611C3.07642 23.3333 3.16216 23.3906 3.25653 23.4297C3.35089 23.4688 3.45203 23.4889 3.55417 23.4889C3.65631 23.4889 3.75745 23.4688 3.85181 23.4297C3.94618 23.3906 4.03192 23.3333 4.10414 23.2611C4.17637 23.1889 4.23366 23.1031 4.27274 23.0088C4.31183 22.9144 4.33195 22.8133 4.33195 22.7111V18.0833C4.32518 17.7806 4.40694 17.4824 4.56721 17.2254C4.72748 16.9684 4.95928 16.7638 5.23417 16.6367C7.59882 15.5448 10.1741 14.9846 12.7786 14.9956C14.238 14.9937 15.6923 15.166 17.1108 15.5089V13.9222ZM17.2197 21.3189H21.9953V22.4078H17.2197V21.3189Z" fill="#1F3A78"/>
<path d="M25.7988 16.6989H21.7777V18.2544H25.021V24.7644H13.9999V18.2544H18.8999V18.5811C18.8999 18.7874 18.9818 18.9852 19.1277 19.1311C19.2736 19.2769 19.4714 19.3589 19.6777 19.3589C19.8839 19.3589 20.0818 19.2769 20.2276 19.1311C20.3735 18.9852 20.4554 18.7874 20.4554 18.5811V15.5555C20.4554 15.3493 20.3735 15.1514 20.2276 15.0056C20.0818 14.8597 19.8839 14.7778 19.6777 14.7778C19.4714 14.7778 19.2736 14.8597 19.1277 15.0056C18.9818 15.1514 18.8999 15.3493 18.8999 15.5555V16.6989H13.2221C13.0158 16.6989 12.818 16.7808 12.6721 16.9267C12.5263 17.0725 12.4443 17.2704 12.4443 17.4767V25.5422C12.4443 25.7485 12.5263 25.9463 12.6721 26.0922C12.818 26.238 13.0158 26.32 13.2221 26.32H25.7988C26.0051 26.32 26.2029 26.238 26.3488 26.0922C26.4946 25.9463 26.5766 25.7485 26.5766 25.5422V17.4767C26.5766 17.2704 26.4946 17.0725 26.3488 16.9267C26.2029 16.7808 26.0051 16.6989 25.7988 16.6989Z" fill="#1F3A78"/>
</g>
</svg>
