<svg width="11" height="15" viewBox="0 0 11 15" fill="none" xmlns="http://www.w3.org/2000/svg">
<path d="M5.15857 14.1293C5.25131 14.2558 5.37257 14.3588 5.51252 14.4297C5.65247 14.5007 5.80717 14.5376 5.96408 14.5376C6.12098 14.5376 6.27568 14.5007 6.41563 14.4297C6.55558 14.3588 6.67684 14.2558 6.76958 14.1293C7.31749 13.3886 8.37368 11.8999 9.28582 10.2537M5.15857 14.1293L5.15858 14.1293L5.15857 14.1293ZM5.15857 14.1293C4.60971 13.3886 3.55447 11.8999 2.64233 10.2537C1.50657 8.20324 0.930664 6.52303 0.930664 5.25956C0.930664 2.60651 3.18835 0.447266 5.96313 0.447266C8.73791 0.447266 10.9956 2.60651 10.9956 5.25956C10.9956 6.52366 10.4197 8.20387 9.28582 10.2537M9.28582 10.2537L8.76099 9.96287M9.28582 10.2537L8.76079 9.96323C8.76086 9.96311 8.76093 9.96299 8.76099 9.96287M8.76099 9.96287C9.88107 7.93796 10.3956 6.36774 10.3956 5.25956C10.3956 2.96287 8.43209 1.04727 5.96313 1.04727C3.49417 1.04727 1.53066 2.96287 1.53066 5.25956C1.53066 6.36706 2.04517 7.93731 3.16716 9.96287L2.64255 10.2535L3.16719 9.96293C4.06121 11.5765 5.09919 13.0413 5.64065 13.7721L5.64254 13.7746L5.64253 13.7746C5.67955 13.8252 5.72796 13.8662 5.78383 13.8946C5.83969 13.9229 5.90144 13.9376 5.96408 13.9376C6.02671 13.9376 6.08846 13.9229 6.14433 13.8946C6.20019 13.8662 6.2486 13.8252 6.28562 13.7746L6.28721 13.7725C6.82816 13.0412 7.86704 11.5763 8.76099 9.96287ZM5.96313 8.09272L5.96379 8.09272C6.65639 8.09196 7.32041 7.81649 7.81015 7.32675C8.29989 6.83701 8.57536 6.17299 8.57612 5.48039V5.47973C8.57612 4.96293 8.42287 4.45774 8.13575 4.02804C7.84863 3.59833 7.44054 3.26342 6.96308 3.06565C6.48562 2.86788 5.96023 2.81613 5.45336 2.91695C4.94649 3.01778 4.4809 3.26664 4.11547 3.63207C3.75004 3.9975 3.50117 4.46309 3.40035 4.96996C3.29953 5.47683 3.35128 6.00222 3.54905 6.47968C3.74682 6.95714 4.08173 7.36523 4.51143 7.65235C4.94114 7.93947 5.44633 8.09272 5.96313 8.09272Z" stroke="#1470C6" stroke-width="1.2"/>
</svg>
