<svg width="18" height="18" viewBox="0 0 18 18" fill="none" xmlns="http://www.w3.org/2000/svg">
<path d="M14.5971 1.74864C15.1848 2.20944 15.5898 2.95374 15.7554 3.73314C15.7754 3.73948 15.795 3.7473 15.8139 3.75654L17.6544 4.60794C17.7573 4.65518 17.8445 4.73087 17.9057 4.82608C17.967 4.92129 17.9997 5.03203 18 5.14524V16.2755C17.9993 16.368 17.9773 16.459 17.9355 16.5415C17.8938 16.624 17.8335 16.6957 17.7593 16.751C17.6852 16.8063 17.5993 16.8437 17.5083 16.8602C17.4174 16.8767 17.3238 16.8719 17.235 16.8461L12.1329 15.4061L6.0669 17.0783C5.95746 17.1084 5.84177 17.1072 5.733 17.0747L0.4266 15.4952C0.303949 15.4592 0.196191 15.3846 0.119336 15.2824C0.0424809 15.1803 0.000629694 15.0561 0 14.9282L0 3.59814C0 3.20214 0.3852 2.91774 0.7695 3.02934L5.9013 4.52424L8.5095 3.72594C8.5454 3.71534 8.58213 3.70781 8.6193 3.70344C8.7201 3.11304 9.0018 2.54604 9.4743 1.99344C10.035 1.33644 11.0187 0.951236 11.9772 0.905336C12.9717 0.857636 13.7313 1.07004 14.5962 1.74774M1.1997 4.39284V14.4863L5.5827 15.7904V5.66814L1.1997 4.39284ZM8.5878 4.94544L6.7824 5.49714V15.6482L11.3409 14.3936V11.4281C11.3409 11.1005 11.61 10.835 11.9412 10.835C12.2724 10.835 12.5406 11.1005 12.5406 11.429V14.2883L16.8003 15.4898V5.52234L15.7923 5.05434C15.7752 5.15334 15.7536 5.25054 15.7266 5.34504C15.5309 6.03512 15.2026 6.68045 14.76 7.24494L12.5307 10.0286C12.472 10.1018 12.397 10.1603 12.3118 10.1994C12.2265 10.2386 12.1333 10.2573 12.0395 10.254C11.9457 10.2508 11.854 10.2257 11.7716 10.1808C11.6893 10.1359 11.6185 10.0724 11.565 9.99534L9.4815 6.97764C9.1377 6.49704 8.8965 6.06864 8.7606 5.68524C8.6753 5.44594 8.61733 5.19776 8.5878 4.94544ZM12.0348 2.09154C11.3814 2.12304 10.71 2.38584 10.3905 2.75934C10.0062 3.20934 9.8172 3.63054 9.7794 4.05714C9.7344 4.57104 9.765 4.93374 9.8928 5.29284C9.9873 5.55834 10.1754 5.89494 10.4661 6.30084L12.096 8.66064L13.815 6.51414C14.1618 6.07093 14.4189 5.56439 14.5719 5.02284C14.7879 4.26684 14.4621 3.15624 13.8519 2.67924C13.2264 2.18874 12.7539 2.05644 12.0357 2.09154M12.1599 2.71884C13.1535 2.71884 13.9599 3.51534 13.9599 4.49814C13.9586 4.73317 13.911 4.96565 13.8198 5.18229C13.7287 5.39893 13.5957 5.59548 13.4285 5.76072C13.2614 5.92596 13.0633 6.05664 12.8456 6.1453C12.628 6.23396 12.3949 6.27886 12.1599 6.27744C11.1663 6.27744 10.3599 5.48094 10.3599 4.49814C10.3599 3.51534 11.1663 2.71884 12.1599 2.71884ZM12.1599 3.90504C12.0815 3.90456 12.0039 3.91953 11.9313 3.94908C11.8587 3.97863 11.7927 4.02218 11.7369 4.07726C11.6812 4.13233 11.6368 4.19785 11.6064 4.27006C11.576 4.34228 11.5601 4.41978 11.5596 4.49814C11.5596 4.82574 11.8287 5.09124 12.1599 5.09124C12.2383 5.09159 12.3159 5.07651 12.3885 5.04685C12.461 5.01719 12.527 4.97354 12.5826 4.91838C12.6383 4.86322 12.6825 4.79764 12.7128 4.72538C12.7432 4.65312 12.7589 4.5756 12.7593 4.49724C12.7581 4.33929 12.6943 4.18827 12.582 4.07726C12.4696 3.96625 12.3178 3.90432 12.1599 3.90504Z" fill="white"/>
</svg>
